<svg id="visual" viewBox="0 0 900 600" width="900" height="900" xmlns="http://www.w3.org/2000/svg" xmlns:xlink="http://www.w3.org/1999/xlink" version="1.1"><rect x="0" y="0" width="900" height="600" fill="#002233"></rect><path d="M0 462L21.5 472.3C43 482.7 86 503.3 128.8 509.3C171.7 515.3 214.3 506.7 257.2 488C300 469.3 343 440.7 385.8 423.5C428.7 406.3 471.3 400.7 514.2 412.2C557 423.7 600 452.3 642.8 467.3C685.7 482.3 728.3 483.7 771.2 470.2C814 456.7 857 428.3 878.5 414.2L900 400L900 601L878.5 601C857 601 814 601 771.2 601C728.3 601 685.7 601 642.8 601C600 601 557 601 514.2 601C471.3 601 428.7 601 385.8 601C343 601 300 601 257.2 601C214.3 601 171.7 601 128.8 601C86 601 43 601 21.5 601L0 601Z" fill="#0066FF" stroke-linecap="round" stroke-linejoin="miter"></path></svg>